<svg width="128" height="37" viewBox="0 0 128 37" fill="none" xmlns="http://www.w3.org/2000/svg">
<g clip-path="url(#clip0)">
<path d="M18.432 37C28.6117 37 36.864 28.7173 36.864 18.5C36.864 8.28273 28.6117 0 18.432 0C8.25229 0 0 8.28273 0 18.5C0 28.7173 8.25229 37 18.432 37Z" fill="#1C68F3"/>
<path d="M99.7393 13.8456C103.118 13.8456 106.955 15.1486 107.185 19.3181H102.462C102.363 18.1128 101.248 17.5591 99.7721 17.5591C98.3945 17.5591 97.7713 18.0803 97.7713 18.6992C97.7713 19.2204 98.1649 19.709 99.4113 19.937L102.396 20.4256C105.381 20.9794 107.349 22.4126 107.349 25.214C107.349 28.8624 104.036 30.5562 99.9033 30.5562C95.7377 30.5562 92.3592 28.8298 92.0312 24.6277L96.7545 24.6603C96.9841 26.0284 98.1321 26.6473 99.8049 26.6473C101.215 26.6473 102.068 26.2239 102.068 25.5398C102.068 25.0186 101.576 24.5951 100.527 24.4323L97.3121 23.8785C94.5568 23.4225 92.6544 21.8915 92.6544 19.1226C92.6544 15.8 95.5081 13.8456 99.7393 13.8456ZM79.8293 13.907C81.5647 13.907 83.0054 14.3626 84.1842 15.111V14.265H89.4886V30.0465H84.1842V29.168C83.0054 29.9164 81.5647 30.3719 79.8293 30.3719C75.5399 30.3719 71.9382 26.8251 71.9382 22.1395C71.9382 17.4213 75.5399 13.907 79.8293 13.907ZM48.7597 7.88627L56.7134 19.7257L64.6342 7.88627H68.7754V30.0648H63.2209V18.9429L58.2581 26.5423V26.5749H55.1687V26.5423L50.1729 18.8777L50.2058 30.0648H44.6514V7.88627H48.7597ZM115.585 6.96472V20.2066L121.136 14.2852H127.475L121.431 20.7271L128 30.0648H121.628L117.818 24.5988L115.585 26.9739V30.0648H110.264V6.96472H115.585ZM80.8771 18.2022C78.716 18.2022 77.1444 19.9593 77.1444 22.1395C77.1444 24.3196 78.716 26.0442 80.8771 26.0442C82.0558 26.0442 83.2019 25.7188 84.1842 24.5799V19.699C83.2019 18.5601 82.0558 18.2022 80.8771 18.2022Z" fill="#1C68F3"/>
<path fill-rule="evenodd" clip-rule="evenodd" d="M29.5571 13.9524V20.0961H10.8995L10.0968 20.0962C10.9464 23.8239 14.3182 26.6083 18.3484 26.6083C21.6803 26.6083 24.5622 24.7052 25.9409 21.9393L29.5571 21.9392V27.0998C29.5571 28.3213 28.5547 29.3115 27.3182 29.3115H9.40688C8.17037 29.3115 7.16797 28.3213 7.16797 27.0998V13.9524H29.5571ZM23.7936 21.9393C22.6062 23.6541 20.6103 24.7795 18.3484 24.7795C16.0865 24.7795 14.0906 23.6541 12.9032 21.9393H23.7936ZM13.5738 15.4269C11.8192 15.4269 10.3677 16.7086 10.1263 18.3759L12.0347 18.3759C12.2446 17.7342 12.8543 17.27 13.5738 17.27C14.2932 17.27 14.9029 17.7342 15.1128 18.3759L17.0212 18.3759C16.7798 16.7086 15.3283 15.4269 13.5738 15.4269ZM23.1513 15.4269C21.3968 15.4269 19.9453 16.7086 19.7038 18.3759L21.6123 18.3759C21.8222 17.7342 22.4319 17.27 23.1513 17.27C23.8708 17.27 24.4805 17.7342 24.6903 18.3759L26.5988 18.3759C26.3574 16.7086 24.9059 15.4269 23.1513 15.4269ZM27.3182 7.19446C28.5547 7.19446 29.5571 8.18467 29.5571 9.40616V12.1094H7.16797V9.40616C7.16797 8.18467 8.17037 7.19446 9.40688 7.19446H27.3182Z" fill="white"/>
</g>
<defs>
<clipPath id="clip0">
<rect width="128" height="37" fill="white"/>
</clipPath>
</defs>
</svg>
